<?xml version="1.0" encoding="utf-8"?>
<!-- Generator: Adobe Illustrator 28.2.0, SVG Export Plug-In . SVG Version: 6.00 Build 0)  -->
<svg version="1.1" id="outputsvg" xmlns="http://www.w3.org/2000/svg" xmlns:xlink="http://www.w3.org/1999/xlink" x="0px" y="0px"
	 viewBox="0 0 255 255" style="enable-background:new 0 0 255 255;" xml:space="preserve">
<style type="text/css">
	.st0{fill:#008174;}
	.st1{fill:#FEF454;}
</style>
<rect y="0" class="st0" width="255" height="255"/>
<path class="st1" d="M87.5,177.4c-2.8-2.8-2.8-3.3,0-5.2c15.9-10.9,22-31,14.9-49.1c-0.6-1.6-1.4-2.1-3-1.5
	c-1.1,0.4-2.2,0.7-3.6,1.1c5.5,12.9,5.4,25.5-1.4,37.7c-3.7,6.7-9,11.9-16,15.8c-0.7-1.3-1.2-2.4-1.7-3.2c3.1-2.6,6.2-4.9,8.9-7.6
	c10.1-10.2,12.8-27.5,6.4-40.4c-0.6-1.2-1.3-1.5-2.6-1.4c-7.8,0.5-15.3-0.8-22.4-4.3c-0.9-0.4-1.8-1-2.6-1.5
	c1.3-3.8,1.5-3.9,4.8-2.3c10.6,5.2,21.3,4.9,32.2,0.9c7.1-2.6,12.8-7.1,17.4-13c0.4-0.5,0.7-1,0.8-1.2c-1.4-1.5-2.6-2.8-4-4.3
	c-8.9,11.9-20.8,18-35.7,17.5c-6.8-0.2-13.2-2.1-18.9-5.8c1.5-3.9,1.6-3.9,4.8-2.2c15.3,8.3,37.1,2.6,46.2-12.3
	c0.4-0.6,0-2.1-0.4-2.8c-4.3-6.8-6.8-14.1-7.1-22.1c-0.1-1.4-0.1-2.5,1.9-2.5c1.8,0,2.3,0.6,2.4,2.4c0.9,18.4,14.2,33.9,32.2,37.5
	c5.9,1.2,5,1.3,6.2-4.8c-3.3-0.8-6.7-1.4-9.9-2.4c-15.7-4.9-27.5-21.2-27.5-37.7c0-1.5,0.6-1.9,2-1.9c1.6,0,2.5,0.2,2.5,2.2
	c0.2,10.1,4.2,18.7,11.5,25.5c5.9,5.5,13,8.9,21.3,9.6c1.7,0.1,2.6-0.3,3.3-1.9c3.4-7.1,8.8-12.5,15.1-17.1c0.6-0.5,1.4-0.8,2-1.1
	c2.7,2.6,2.6,3-0.2,5.1c-11.2,8.2-17.3,19.2-17.6,33.3c-0.1,5.3,0.8,10.3,2.7,15.3c0.7,1.9,1.7,2.5,3.6,1.6c0.9-0.4,2-0.6,3-0.9
	c-1-3.2-2.1-6.2-2.8-9.4c-3.8-16,4.1-34.5,18.3-42.9c1.1-0.6,2.1-1.7,3.1,0.3c0.9,1.6,0.8,2.4-0.9,3.6c-11.4,7.7-17.3,18.3-17,32.2
	c0.1,4.7,1.1,9.2,3.1,13.5c0.7,1.6,1.7,2.2,3.5,2.1c8-0.4,15.6,1.1,22.8,4.7c1.6,0.8,2,1.5,1,3.1c-0.8,1.3-1.6,1.5-2.9,0.8
	c-6.9-3.7-14.3-5.1-22-4.4c-12,1-21.6,6.5-28.9,16c-0.4,0.5-0.2,1.7,0.1,2.4c0.6,1.2,1.6,2.1,2.6,3.4c2.3-2.6,4.1-4.7,6-6.6
	c11.9-12,33-14.9,47.6-6.6c1.2,0.7,2,1.2,1.1,2.8c-0.8,1.2-1.4,2.3-3.1,1.2c-5.9-3.3-12.2-4.6-18.9-4.4c-9.3,0.3-17.2,3.9-23.8,10.3
	c-0.5,0.4-0.9,0.9-1.3,1.4c-4.4,4.4-4.3,4.4-1.3,9.8c3.4,6.1,5.1,12.7,5.7,19.6c0.1,1.2,0.1,2.3-1.6,2.3c-1.4,0-2.7,0.2-2.8-1.9
	c-0.5-8.1-2.9-15.5-7.8-22.1c-6.8-9.1-15.7-14.6-26.9-16.4c-0.8-0.1-2.3,0.1-2.5,0.5c-0.6,1.5-0.8,3.2-1,4.8c0,0.1,1.1,0.5,1.6,0.6
	c17.5,2.7,28.8,12.7,34.1,29.4c1,3.1,1,6.6,1.4,9.9c0.1,1,0.3,2.2-1.4,2.1c-1.4-0.1-2.6,0.1-2.9-2c-0.4-3.5-0.8-7-1.7-10.4
	c-3.5-12.9-16.8-23.8-30-25c-2.4-0.2-3.7,0.4-4.8,2.6C100.5,167.3,94.7,172.9,87.5,177.4L87.5,177.4z M123.6,104.6
	c-0.9,1.1-1.8,2.2-2.6,3.2c-3.8,4.4-8.3,7.9-13.4,10.7c-0.7,0.4-1.6,1.7-1.4,2.2c2.7,6.5,3.7,13.2,3.5,20.2c0,0.6,0.8,1.6,1.4,1.6
	c7.3,1.2,14.1,3.5,20.4,7.9c4.8-6.4,10.6-11.5,18-14.9c-3.1-7.1-4.5-14.2-4.1-21.6c0-0.6-1.2-1.7-1.9-1.7
	C136.2,111.4,129.9,108.7,123.6,104.6L123.6,104.6z"/>
<path class="st1" d="M115.4,53.7c1.2,0.1,2.5,0.1,4,0.2c-0.3,8.8,2.1,16.5,7.9,23.1c5.7,6.5,13,10.2,21.8,10.9v4
	C132,92.4,113.1,74.8,115.4,53.7L115.4,53.7z"/>
<path class="st1" d="M106,162.9c22.2,1.6,35.6,21.8,33.5,38.5c-1.2-0.1-2.4-0.1-4-0.2c0.3-8.8-2.1-16.6-7.9-23.1
	c-5.7-6.6-13.1-10.1-22-10.9C105.8,165.7,105.9,164.4,106,162.9L106,162.9z"/>
<path class="st1" d="M197.5,154c-0.8,1.2-1.5,2.2-2.3,3.4c-7.4-4.9-15.4-6.4-24-4.8c-8.6,1.6-15.2,6.3-20.4,13.5
	c-0.6-0.3-1.2-0.6-1.8-1c-0.5-0.3-1-0.7-1.5-1.1C156.6,147.9,181.2,142.3,197.5,154L197.5,154z"/>
<path class="st1" d="M185.4,80c0.6,1.3,1.2,2.4,1.7,3.6c-16.7,8.9-21.7,28.1-14.6,43c-1.1,0.6-2.3,1.2-3.4,1.8
	C160.3,112.9,166.3,89.1,185.4,80L185.4,80z"/>
<path class="st1" d="M69.6,175c-0.6-1.3-1.2-2.4-1.7-3.5c16-8.8,21.9-26.9,14.6-43.1c1.2-0.6,2.3-1.2,3.5-1.8
	C94.5,142.5,88.8,165.9,69.6,175L69.6,175z"/>
<path class="st1" d="M104.3,89.1c1.1,0.7,2.1,1.3,3.1,1.9c-8.5,15.1-32.9,22.4-49.9,10.1c0.7-1,1.4-2.1,2.1-3.2
	C76.8,107,91.7,104.2,104.3,89.1L104.3,89.1z"/>
<path class="st1" d="M54,93c0.8-1.1,1.6-2.1,2.4-3.3c6.2,4.3,13,6.1,20.4,5c7.5-1.1,13.4-4.8,18.3-10.9c1.1,0.8,2.1,1.6,3.1,2.4
	C91.2,98.2,69.7,105.1,54,93L54,93z"/>
<path class="st1" d="M200.9,162.2c-0.8,1-1.5,2-2.4,3.2c-6.2-4.3-13-6.2-20.4-5c-7.4,1.2-13.5,4.7-18.3,10.9
	c-1.1-0.9-2.2-1.6-3.2-2.4C165.4,155.1,187.3,151,200.9,162.2z"/>
<path class="st1" d="M194.1,81.2c0.6,1.3,1.1,2.4,1.6,3.8c-6.8,3.3-11.9,8.2-14.6,15.2c-2.7,7-2.7,14,0.3,21.2
	c-1.2,0.6-2.4,1.1-3.6,1.6C171.1,110.8,175.7,89.1,194.1,81.2L194.1,81.2z"/>
<path class="st1" d="M120.8,46.7c1.2,0.1,2.5,0.3,3.7,0.4c0,16.8,8,27.2,24.7,30.9c-0.2,1.2-0.3,2.5-0.5,3.8
	C132.3,80.7,118,63.9,120.8,46.7L120.8,46.7z"/>
<path class="st1" d="M60.8,173.9c-0.6-1.3-1.1-2.5-1.6-3.6c15.9-11.3,18.4-17.6,14.4-36.7c1.1-0.5,2.3-1,3.4-1.5
	C84.2,145.5,78.2,166.6,60.8,173.9z"/>
<path class="st1" d="M134.2,208.5c-1.4-0.2-2.6-0.4-3.9-0.5c0.1-16.9-8-27.1-24.5-30.8c0.1-1.2,0.2-2.4,0.3-3.5
	C118.7,173.2,136.7,187.6,134.2,208.5L134.2,208.5z"/>
<path class="st1" d="M52,172.6c-0.5-1.3-0.9-2.5-1.3-3.6c12.6-5.4,17.8-18,14.1-30.2c1.2-0.4,2.4-0.9,3.7-1.3
	C74.3,150.3,65.7,168.8,52,172.6z"/>
<path class="st1" d="M149.2,67.7c-0.3,1.4-0.5,2.5-0.7,3.7c-12.4-1-25.7-15.2-22.3-31.7c1.2,0.2,2.4,0.4,3.8,0.7
	C128.9,54.5,135.4,63.6,149.2,67.7L149.2,67.7z"/>
<path class="st1" d="M204.6,86.3c-12.3,4.6-17.5,15.3-14.4,30c-1.1,0.5-2.4,1-3.6,1.4c-5.6-12.2,1.1-30.3,16.3-35.3
	C203.4,83.8,204,85,204.6,86.3L204.6,86.3L204.6,86.3z"/>
<path class="st1" d="M105.8,187.5c0.2-1.4,0.4-2.6,0.6-3.8c11.6,0.8,25.7,14.4,22.4,31.8c-1.3-0.2-2.6-0.5-4-0.8
	c0.9-6.4-0.3-12.2-4-17.4C117.3,192.2,112.3,189,105.8,187.5L105.8,187.5z"/>
<path class="st1" d="M86.5,78.8c1,0.9,1.9,1.7,2.8,2.4c-7.9,11.7-27.8,13.6-38.6,3.4c0.9-1,1.7-2,2.6-3C62.6,89,76.2,89.5,86.5,78.8
	z"/>
<path class="st1" d="M168.6,176.4c-1.1-0.9-2.1-1.8-3.1-2.7c8.6-11.6,28.4-13.2,38.8-3.3c-0.8,1-1.6,1.9-2.6,3
	c-5.1-4-10.8-5.9-17.2-5.3C178.2,168.7,172.9,171.5,168.6,176.4L168.6,176.4z"/>
<path class="st1" d="M47.2,76.4c0.9-0.8,1.9-1.7,2.9-2.6c9,7.2,18.1,7.2,27.6-0.2c0.7,0.9,1.5,2,2.4,3.1
	C73,85.7,55.1,85.8,47.2,76.4z"/>
<path class="st1" d="M204.5,86.3c2.3-1,4.6-2,7.2-3.1c0.4,1.5,0.8,2.8,1.2,4.3c-5.1,1.6-9.1,4.5-11.7,9.1c-2.6,4.5-3.2,9.3-2,14.6
	c-1.3,0.4-2.6,0.7-3.8,1.1c-2.9-7.6,0.4-18.3,7.3-24.1C203.3,87.6,204,86.9,204.5,86.3L204.5,86.3L204.5,86.3z"/>
<path class="st1" d="M207.8,178.6c-1,1-2,2-2.9,2.9c-8-7.4-19.4-7.3-27.3-0.2c-1-0.9-1.9-1.8-2.9-2.6
	C181.1,170.6,197.7,168.2,207.8,178.6L207.8,178.6z"/>
<path class="st1" d="M149.2,57.5c-0.4,1.3-0.7,2.4-1,3.5c-11.7-1.8-20.7-16.7-16.5-28.5c1.2,0.3,2.4,0.7,3.7,1.1
	C133.6,45.1,138,53.2,149.2,57.5L149.2,57.5z"/>
<path class="st1" d="M43.2,171.6c-0.4-1.3-0.7-2.5-1.1-3.9c11-4.2,15.6-12.1,13.8-23.9c1.3-0.3,2.5-0.6,3.7-0.9
	C63.3,152.7,57.2,167.9,43.2,171.6L43.2,171.6z"/>
<path class="st1" d="M105.8,197.6c0.3-1.3,0.6-2.4,0.9-3.5c9.9,1.1,20.8,14.6,16.6,28.4c-1.2-0.3-2.5-0.6-3.8-0.9
	C121.7,209.2,115.3,201,105.8,197.6L105.8,197.6z"/>
<image style="display:none;overflow:visible;" width="400" height="400" xlink:href="C3003E20.jpg"  transform="matrix(1.0002 0 0 1.0002 -466.9816 -95.8306)">
</image>
</svg>
