<?xml version="1.0" encoding="UTF-8"?><svg id="outputsvg" xmlns="http://www.w3.org/2000/svg" viewBox="0 0 635.09 410.15"><defs><style>.cls-1,.cls-2{stroke-width:0px;}.cls-2{fill:#fff;}</style></defs><g id="l5Zf9QqhmH5flC5vJm7upMB"><path id="pATbcbWSc" class="cls-1" d="M172,403.25c-2.4-.7-2.5-.9-2.5-11.1s-.2-11-3.2-17.2c-4.1-8.6-10.9-15.5-19.2-19.3l-6.3-2.9.6-4.5c.9-6.2,1.7-6.7,7.3-4.6,14.6,5.5,26.7,18.8,30.7,33.6,2,7.3,2.1,1.9.2-7.2-3.7-17.2-17-32-32.8-36.7-5.4-1.6-5.8-1.9-5.8-4.7,0-8.1,1.6-8.9,11.8-5.4,16.8,5.7,30.6,20.1,36.3,37.9l1.8,5.5v-4c.1-2.2-.6-6.5-1.4-9.5-5.3-20.1-22.4-36.9-42.1-41.3l-5.9-1.3-.3-5.2-.3-5.2h3.9c8.6,0,23.7,6.5,33.4,14.4,10.3,8.4,19.1,22.3,22.3,35.4l1.3,5.7.1-5c.1-7.1-2.2-15.6-7.1-25.5-3.2-6.7-5.9-10.2-12.3-16.6-9.7-9.7-19.9-15.2-33.5-18-4.7-1-8.7-1.9-8.9-2-.1-.2,0-2.6.4-5.5l.7-5.1,5.2.6c30.7,3.6,56.8,26.2,64.6,56l1.9,7.1v-4.6c.1-7.2-3.4-19.3-8.6-29.3-10.7-20.5-33.7-36.7-55.9-39.1l-5.9-.7-2.5,4.9c-6.3,12.1-17.3,24.7-28.6,32.9-7.3,5.2-9.8,5.5-11.9,1.4-2.5-4.8-1.8-6.2,6.2-12,28.7-21,40.6-57.6,29.7-92-1.3-4.4-2.9-8.2-3.4-8.5-1.2-.7-9,1.3-9,2.3,0,.4.9,3.5,2.1,6.7,1.2,3.3,2.7,9.8,3.5,14.5,4.1,25.4-2.1,49.3-18.2,69.2-7.3,9.1-22.1,20.8-26.2,20.8-1.3,0-4.5-7.7-3.9-9.3.3-.8-2.1.3-5.3,2.4-3.1,2.2-6.7,3.9-7.8,3.9-2.1,0-3.9-2.4-5.1-6.6q-.6-2.3-6.1,1.2c-6.9,4.4-9,4.1-11-1.2l-1.5-4.1-3.9,2.5c-2.2,1.3-5.6,2.7-7.6,2.9-3.3.5-3.8.2-4.4-1.8-1.3-4.9-1.9-5.1-7.7-2.4-7.7,3.5-9.3,3.3-10.7-1.4-.7-2.1-1.2-4.3-1.2-4.9,0-.5,2.8-2.3,6.3-4,15.8-7.5,24.7-22.7,23.1-39.8l-.6-7.1,4.8-1.2c5.7-1.5,6-1.2,6.9,7.8,1.3,13.1-3.3,28.5-11.2,37.2-4.8,5.2-2.9,4.9,3.4-.6,13.2-11.6,19.2-28.5,15.8-44.9-.9-4.3-1.3-8.2-.8-8.6,1.3-1.3,8.2-3.2,9.2-2.6,1.2.8,3,8.2,3.7,16.3.8,8.1-1.4,20.6-5,28.6-1.2,2.9-4.6,8.2-7.4,12-5.7,7.4-4.1,7.4,3.7-.2,6.8-6.6,12.3-15.4,15.2-24.3,3.2-9.8,3.3-24.3.1-33.5-1.2-3.4-2.2-6.4-2.2-6.7,0-.6,7.8-3.6,9.5-3.6.9,0,2.3,2.6,3.7,7.3,3.3,10.4,3.3,29,0,39.7-3.2,10.1-8.1,18.7-15,26.2-8.5,9.2-2.4,5.2,7.8-5.1,14.1-14.2,19.6-28.2,18.8-48.1-.3-8.1-1.1-12.2-3.1-18.1-1.5-4.1-2.7-8-2.7-8.6,0-1.4,7.6-4.7,9.3-4,.8.3,2.7,4.5,4.3,9.4,2.7,8.2,2.9,9.8,2.9,24.8s-.2,16.5-2.8,24c-3.7,10.6-9.4,20.1-17,28.2-9.1,9.8-3,5.8,7.9-5.1,9.5-9.5,13.7-16,17.8-27.6,6.4-18,5.8-37-1.9-53.7l-2.4-5.3h-11.4c-8.9,0-13.6-.6-21.2-2.5-11-2.8-22.2-7.6-23.1-9.9-.8-2,3.3-8.6,5.2-8.6.8,0,3.6,1.1,6.2,2.4,12.9,6.5,29.3,9.1,44.5,7,21.3-2.9,35.5-9.7,50-24,9.1-9,9.3-9.3,5.5-13.7l-3.1-3.5-4.2,5.1c-7.4,9.1-20,18.8-30.2,23.3-22.8,10.1-51.8,10-73.1-.2-4-1.9-7.5-4.1-7.8-4.9-.8-1.9,2.4-7.5,4.7-8.3,1.6-.6.8-1.3-4.6-4-3.6-1.8-6.8-3.9-7.1-4.7-.7-1.7,3.2-8.5,4.9-8.5.7,0-1-1.2-3.8-2.6-5.4-2.8-8.5-5.2-8.5-6.6,0-.5,1.1-2.5,2.4-4.5l2.5-3.6-5.1-3.1c-6.9-4.2-7.7-5.6-5-9.4,1.2-1.6,2.2-3.2,2.2-3.4,0-.3-2.5-2.2-5.5-4.3-3-2-5.5-4.5-5.5-5.3,0-2,4.9-7.2,6.7-7.2.7,0,3.6,1.5,6.3,3.4,13.8,9.5,32.2,9.5,44.6,0,5.4-4.2,7.2-4.2,10.9-.4s3.1,5-5.4,10.7c-8.9,6.1-15.3,7.8-28.8,7.8-6.2,0-10.9.3-10.5.7,2.1,2,13.8,4.8,20,4.8,12.6,0,23.2-4.1,33-12.6,2.8-2.4,5.4-4.4,5.9-4.4,1.2.1,7.3,5.8,7.3,6.9,0,.5-2.7,3.4-6,6.5-6.7,6.1-17.4,11.8-25.8,13.5-6.7,1.4-21.5,1.4-26.5,0-5.6-1.5-5.6-.4,0,2.1,20.6,9.2,43.9,5,60.8-11.1,4-3.8,7.8-6.9,8.4-6.9,2.3,0,7.1,4.4,7.1,6.6,0,2.8-12.7,14.9-19.5,18.6-16.1,8.6-36.9,11-54.2,6.3-1-.3.9.8,4.2,2.4,24.4,11.9,57.5,4,75-17.8,2.2-2.8,4.8-5,5.8-5.1,3.1,0,7.7,3.2,7.7,5.5,0,3.1-12.1,15.7-20.2,21.2-18.3,12.1-42.7,16.1-63.5,10.3-3.5-.9-6.3-1.6-6.3-1.4,0,.8,7.8,4.2,14,6.2,15.4,5,31.2,4.6,46.8-1,13.9-5,27.9-15.6,35.6-26.9l2.3-3.4-2.3-3.1c-3.4-4.4-8.9-16.8-11.4-25.5-1.2-4.1-2.4-11.8-2.7-17.1l-.6-9.8h5.1c5.9,0,5.6-.4,6.7,11.4,1.7,17.8,11.5,36.9,25.9,50.4,12.2,11.4,24.3,17.7,40.8,21.3,6.8,1.4,8.3,1,9.1-2.8.3-1.5.9-3.6,1.2-4.5.6-1.5.2-1.8-2.3-1.8-4.5,0-15.8-2.8-22.3-5.5-19.4-8.2-34.7-22.3-43.5-40-5.8-11.8-8.3-20.8-9.1-32.7l-.6-9.8h11.3v-15.2l5.5.4,5.5.3v-15.6l5.5.6,5.5.7v-15.5l5,.5c4.9.5,5,.4,5-2.2,0-5.9,1.4-12.2,2.7-12.7.8-.3,3.2-.1,5.3.6l3.9,1.1-.2,9.3c-.2,11.2,1.6,17.1,7.7,25.5,4.6,6.2,11.7,11.5,17.8,13.4,4.3,1.3,4.2,1.2,2.7,7.5-1.1,4.3-1.3,4.5-4.3,3.9-5-1-13.6-5.8-18.8-10.5-6.2-5.6-10.3-11.4-13.3-19.3-2.3-6.1-2.4-6.2-2.5-2.7,0,4.6,3.3,15.2,6.3,20.1,3,5.1,11.3,13.5,16.2,16.6,2.2,1.4,6.9,3.6,10.5,4.8,6.9,2.4,6.6,2.1,6.2,9.4-.2,2.6-.6,3-3.2,3-4.1,0-14.8-4.2-21.2-8.3-11-7-20.8-20.6-24.2-33.7l-1.5-5.5v4c-.2,12.4,6.4,27,16.9,37.6,8.4,8.4,16.1,12.8,27.3,15.5q7.2,1.8,6,8.7l-.6,3.8-4.1-.6c-27.3-4.2-48.7-24.4-55.2-52l-1.4-6,.4,8c.9,15.6,7.3,29.2,19.6,41.5,10.4,10.4,23.2,16.9,36.4,18.5l5.6.7v10.8h-4.3c-6.4,0-18.5-3.4-26.3-7.3-21.3-10.7-35.5-28.8-40.9-52.1l-1.5-6.1.5,7c1.2,19.4,11.6,39.3,26.9,51.7,11.3,9.1,29.8,16.8,40.2,16.8,3.9,0,4.1-.2,6.5-5.2,3.2-7,9.2-15,17-22.6,6.6-6.6,17.1-14.2,19.5-14.2,1.5,0,3.5,3.3,4.3,7.3l.6,2.7,4.9-3.5c6.1-4.4,9.9-4.6,11.4-.7.6,1.5,1.2,3.5,1.4,4.5.3,1.5,1.1,1.2,6.1-1.8,7.7-4.6,9-4.5,11.1.9l1.7,4.5,5.7-3.5c3.1-1.9,6.4-3.4,7.2-3.4s2.3,2,3.3,4.4l1.8,4.4,5.2-2.9c7.1-3.9,9.3-3.8,10.7.6.6,1.9,1.5,3.5,1.9,3.5s2.6-.9,4.9-2c5.3-2.6,9.8-3.5,10.6-2.2.3.6.9,3,1.2,5.4l.5,4.3-5.6,2.4c-8.1,3.4-15.7,10.8-19.7,18.9-3.1,6.3-3.3,7.3-3.3,17.4v10.7l-4.8,1.2c-2.6.6-5.1.8-5.5.4s-.7-6.4-.7-13.3c.1-14.9,1.6-20.1,9.2-30.4l4.6-6.2-4.2,3.1c-5.9,4.4-13.5,14.2-16.2,21-1.8,4.6-2.3,7.8-2.3,15.8-.1,5.5.3,12,.8,14.5q.8,4.5-2.6,5.8c-5.9,2.1-6.6,1.7-8.4-4.5-2.4-8.2-1.5-26.6,1.6-34.8,2.7-7,7.9-15.6,12.4-20.4,4.8-5.2-.1-2.2-7.1,4.3-6.8,6.4-11.5,13.7-15,23.8-3.5,9.7-3.6,23.2-.4,32.5,1.1,3.4,2.1,6.7,2.1,7.3,0,1.3-6,4-8.8,4-4.3,0-8.2-22.2-6.3-35.8,2-14.2,6.8-24.9,16.4-36.4l5.1-6.3-3.9,2.9c-11.2,8.2-19.9,20-24.2,32.9-2.3,7.1-2.7,9.8-2.7,20.2s.3,13,2.7,19.8c1.5,4.2,2.7,8.4,2.7,9.2,0,1.7-5,4.5-7.9,4.5-4,0-9.1-18.6-9.1-33.3,0-21.2,7.5-39.8,22.1-54.7,5.8-5.8,5.1-5.8-2.1-.2-13,10.2-21.4,22.4-26.5,38.3-5,15.6-3.5,37.2,3.6,51.2l1.9,3.7h8.8c14.6,0,30.6,3.6,42.4,9.6,5.2,2.6,5.6,3.9,3.3,8.4-1.1,2.2-2.3,3-4.3,3-2.1.1-.9.9,5.1,3.7,8.3,3.9,9,4.9,6.2,10.3-1,2-2.3,3-3.8,3s0,1.2,4.3,3.4c8.4,4.4,9.1,5.6,6.2,10.7-1.3,2.2-2.2,4.2-2,4.3.2.2,2.7,1.6,5.6,3.1,6,3.3,6.5,5.1,2.6,10.2-1.4,1.8-2.1,3.3-1.6,3.3,1.5,0,12.2,7.3,12.2,8.3,0,.5-1.2,2.3-2.6,4-2.5,2.9-2.5,3.1-.7,4.3,6.1,4.2,10.3,7.8,10.3,8.8,0,1.3-6.1,7.6-7.3,7.6-.4,0-2.7-1.5-5.2-3.4-13.2-10.1-32-10.5-45.1-1.1-7,5-7.2,5.1-10.5,1.9-4-3.8-3.7-6.3,1.4-10.1,10.3-7.7,25.5-11.6,37.9-9.6,3.5.6,6.5.9,6.7.7.6-.5-6.6-3.5-12.4-5-14-3.8-30.5.5-42.2,11-2.8,2.5-5.7,4.6-6.5,4.6-2.2,0-7-5.6-6.6-7.6.5-2.7,11.4-11.2,18.6-14.5,12.3-5.7,26.4-7.4,38.7-4.5,3.3.8,6.1,1.3,6.3,1.2.5-.5-11.1-5.4-15.8-6.7-10.1-2.7-24.5-1.2-35.9,3.8-6.3,2.8-16.2,10.2-19.3,14.4-1.2,1.6-3,2.9-4,2.9-2.6,0-7.8-4-7.8-6,0-2.4,11.9-14,18.4-17.9,13.1-7.8,29.7-11.2,45-9.2,4.7.7,9.4,1.4,10.4,1.7.9.2-1-.9-4.3-2.5-16.7-8.2-40.4-6.5-58.1,4-7,4.2-15.6,11.9-18.4,16.5-1.2,1.9-2.8,3.4-3.6,3.4-2.3,0-8.4-4.4-8.4-6,0-4.5,17.3-20.6,28.1-26,11-5.6,21.7-8,35.3-8,7.7,0,14.3.6,18,1.5,3.3.9,6.1,1.4,6.3,1.2.8-.9-12.2-5.8-19-7.2-16.3-3.4-32.1-1.1-48.4,7.1-7.3,3.6-11,6.4-17.5,12.8-11.9,11.6-11.8,11.4-6.3,21.1,2.5,4.4,5.8,12.1,7.4,17,3,9.4,5.8,26.3,4.8,28.9-.5,1.2-2,1.6-5.6,1.6h-5l-.6-5.7c-1.1-10.2-4.3-22.1-8.3-30.6-4.3-9.2-13.7-21.4-21.2-27.7-11.7-9.8-27.9-17.4-41.7-19.5-4.6-.7-5.1-.1-5.6,7-.2,2.8,0,3,5,3.6,37.9,4.8,69.4,39,71.1,77.2l.5,10.7h-4.6c-3.3,0-4.9-.5-5.6-1.7-.8-1.3-1,.5-1.1,7v8.9l-5.5-.4-5.5-.3v15.8l-4.9-.7-4.8-.6-.7,7.7c-.3,4.2-.8,7.8-1,8.1-.3.2-2.5,0-5-.6l-4.6-1v4.8c0,2.6-.3,6.2-.6,7.9-.7,3.3-2.6,3.8-8.4,2.2ZM214.3,261.95c15.2-19.6,36.9-30.4,63.2-31.5,11.2-.5,17.8.2,30.5,3.2,1.8.4,1.5.1-1.2-1.4-8.8-4.9-22.9-8.1-35.6-8.1-23,0-44.8,9.9-61.6,28l-5.7,6.3,3.2,3.3c1.8,1.9,3.6,3.4,4,3.4s1.8-1.5,3.2-3.2ZM202.9,242.25c7.8-7.9,21.2-18,26.1-19.6,1.8-.6,1.8-.7.1-4.8-3.3-7.8-5.4-18.1-6-30.2l-.6-11.9-4.5-.8c-12.8-2.2-25.4-6.6-34.2-12l-4.7-2.9-8.3,8.7c-6.9,7.3-22.5,19.1-27.1,20.7-.6.2,0,2.9,1.2,6.1,3.5,9.5,4.3,13.5,5,27l.6,13,10,2.2c13.3,2.9,22.9,6.5,30,11.4,1.7,1.1,3.2,2,3.4,2s4.2-4,9-8.9ZM246.6,216.05c3.6-.9,4.4-1.5,3.8-2.8-5.2-11.7-7.9-27.3-6.9-40.1,1.7-22.2,10.2-41,25.5-56,4.7-4.6,5-5.1,2.1-3.5-5.8,3.4-19.5,17.6-24.4,25.5-11.3,18.3-15.4,40.8-11.2,61,1.4,6.6,5.2,17,6.2,17,.2,0,2.4-.5,4.9-1.1Z"/></g><g id="l572pdODBz2An3huvvmD2Sy"><path id="pcPCwJtUE" class="cls-2" d="M0,205.15V.15h372v410H0v-205ZM179.4,400.05c1.1-5.5.7-15.3-.9-21.4-3.9-14.9-15.8-28.2-30.2-33.8-4.7-1.8-4.8-1.7-5.8,3.3l-.6,3.6,6.3,2.9c8.2,3.8,15.1,10.7,19.1,19.3,2.9,6.1,3.2,7.6,3.3,17.2.1,10.1.2,10.5,2.5,11.1,4.7,1.3,5.6,1,6.3-2.2ZM190.5,383.45c2.2-19.7-8.8-41.8-26.8-53.4-5.9-3.8-19.1-8.8-20.3-7.7-.3.4-.8,2.4-1.1,4.5l-.5,3.8,5.9,1.7c12.2,3.5,23.4,13.5,29.4,26.1,3.3,6.9,5.4,18.2,4.5,24.3-.5,4.1-.4,4.4,2.2,5,1.5.3,3.2.7,3.7.9.6.2,1.3.4,1.7.4.3.1.9-2.5,1.3-5.6ZM200.8,363.45c-.8-17.9-6.5-30.8-19.4-43.8-9.7-9.8-27-18.5-36.6-18.5-2.8,0-2.9.2-2.6,4.2l.3,4.2,5.9,1.3c10.2,2.3,18.2,6.9,26.6,15.2,11.6,11.5,17,23.9,17,39.3,0,7.6,0,7.7,2.8,8.1,7,1,6.5,1.8,6-10ZM212,351.35c0-28.6-19.9-56.4-48-67.1-6.9-2.6-20.6-5.8-21.4-5-.2.2-.7,2.2-1,4.4l-.7,4,8.8,1.8c13.8,2.8,24,8.3,33.8,18.1,6.4,6.4,9.1,9.9,12.3,16.6,5.1,10.4,7.2,18.3,7.2,27,0,3.7.3,7,.7,7.3.3.4,2.4.7,4.5.7h3.8v-7.8ZM222.8,335.45c-1.4-28.1-19.8-55.2-46.5-68.7-6.3-3.1-21.3-7.6-25.7-7.6s-5.6-1.5-4.6-4.9c.5-1.4,1.1-3.9,1.5-5.5.6-2.8.7-2.8,5.8-2.2,13.9,1.8,30.6,9.5,42.7,19.6,7.5,6.3,16.9,18.5,21.2,27.7,4,8.5,7.2,20.4,8.3,30.6l.6,5.7h3.9c2.1,0,4.2-.5,4.5-1.1,1.1-1.8-1.6-17.9-4.6-27.4-1.6-4.9-5.1-12.8-7.7-17.5-4.9-8.4-4.9-8.5-3.3-11.5.9-1.6,5.3-6.7,9.9-11.1,13.9-13.8,32.4-21.4,51.6-21.4,11.6,0,21.9,2.2,31.4,6.5,4.1,1.9,8.1,3.5,8.8,3.5,1.3,0,4.4-4.9,4.4-6.8,0-1.4-14.5-7.7-22.5-9.8-9.7-2.5-32.4-2.6-41.3-.2-20.7,5.8-32.5,13.5-47.5,31.3l-2.6,3-4-4c-2.3-2.1-4.1-4.5-4.1-5.1,0-1.9,10.5-12.9,17.1-18,25-19.2,61.1-23.1,87.9-9.4,2.2,1.1,4.6,2,5.4,2,1.3,0,4.6-4.7,4.6-6.4,0-.9-9.4-5.4-16.1-7.6-9.1-3.1-21-5-31.1-5h-8.8l-1.9-3.8c-4.6-9.1-6.4-18.1-6.4-31.7.1-11.3.4-14.1,2.8-21.4,4.5-13.9,10-22.7,20.9-33.4,2.7-2.6,7.1-6.2,9.8-7.9,5.1-3.3,5.5-4.2,3.6-8.3-1.9-4.3-3.8-3.6-16.1,6.3-26,21-37.1,59.6-26.1,90.7,4.2,11.7,4.3,10.9-2.1,12.7l-5.7,1.6-2.4-5.2c-3.5-7.7-5.4-18.4-5.4-30.6,0-16.8,4-30.9,12.7-45,5.2-8.3,18.8-22.4,24.6-25.5,4.1-2.2,4.4-3.2,2.2-7.6-1.5-2.8-1.7-2.9-4.4-1.5-10.9,5.7-27.4,23.4-33,35.4l-2.4,5.2h-5.1c-11.4,0-29.5-7.4-41.2-16.8-15.5-12.5-25.6-32-27.1-52.4l-.6-7.8h-9l.6,8.8c2.7,36.1,29.6,67.4,65.1,75.6,3.7.9,8,1.6,9.7,1.6,3.3,0,3.4.6,1.5,7-1.5,5.3-3.2,5.8-11.6,4-16.3-3.5-28.5-9.9-40.6-21.2-14.4-13.5-24.2-32.6-25.9-50.4-1-11.5-1-11.4-5.5-11.4h-4v5.5c0,14.1,7,34.8,16.2,47.6,2.3,3.3-9.8,17-21.8,24.9-22.5,14.7-52.8,16.4-75.6,4.3-5.1-2.8-6.1-2.6-8.3,1.7-1.4,2.8-1.4,2.9,1.8,4.9,15.8,9.7,41.5,13,61.3,7.7,10.6-2.9,18.5-6.2,25.1-10.7,7.3-4.9,16.6-13.3,20.4-18.3,1.9-2.5,3.8-4.6,4.3-4.6s2.7,1.9,4.8,4.1l3.9,4.1-3.3,4.2c-7.1,8.9-19.2,18.8-28.3,23-14.4,6.8-33.6,10.3-47.7,8.6-9.7-1.2-20.2-4.2-27.2-7.7-4.8-2.4-5-2.5-6.4-.7-3.2,4.4-3.3,5.3-1,6.8,9.4,6.2,27.2,10.6,42.5,10.6h11.4l2.4,5.3c9.6,21,8.3,46.2-3.6,68.2-3.9,7.1-16.1,20.1-23.5,25-3,2-5.4,3.8-5.4,4s.7,2,1.7,3.9l1.6,3.5,3.1-1.6c5.7-2.9,16.5-12.3,22-19.1,14.9-18.5,21.5-40.9,18.7-63.4-.7-5.5-2.4-13.2-3.7-17.1-1.4-4-2.6-7.9-2.7-8.7-.3-1.9,9.2-5.2,11-3.7,2.1,1.6,6.2,16,7.3,25.7,2.7,21.6-3.4,43.2-17.3,61.5-4.5,6-17.2,17.4-22.5,20.4-1.5.9-1.5,1.2.1,4.5.9,2,2.2,3.6,2.8,3.6,2.1,0,13.4-8.8,20-15.7,7-7.2,11.7-13.6,15.9-21.7l2.5-4.8,6.7.6c22.6,2,46.2,18.3,57.1,39.2,5.2,10.1,8.7,22,8.7,29.6,0,6.9,1.3,8.8,5.7,8.8h3.6l-.5-9.7ZM300.7,310.75c5.7-2.9,16.3-4.8,22.3-4.1,7.4.9,15.2,4,20.4,8l4.4,3.3,3.1-3.2,3.1-3.2-4-3.3c-17.2-13.8-42.9-14.2-60.7-.8-2.3,1.8-4.3,3.6-4.3,4.1,0,.6,1.2,2.2,2.7,3.8l2.6,2.7,3.6-2.8c2-1.6,5-3.6,6.8-4.5ZM277.4,302.55c9.6-8.8,22.1-13,35.6-12.2,8.7.6,17,3.3,23.6,7.8l4.7,3.1,2.7-3.3,2.8-3.3-3.2-2.3c-8.8-6.6-22.9-11.2-34.3-11.2s-25.2,4.7-35.1,12.4c-8.8,6.7-9,7.1-5.7,10.6,1.6,1.7,3.1,3,3.3,3s2.7-2.1,5.6-4.6ZM75,299.65c13.3-8.8,24.1-23,29.7-39,2.6-7.4,2.8-9.1,2.8-23.5s-.2-16.1-2.8-23.5c-1.6-4.4-3.2-8.4-3.7-8.8-.6-.7-6,1.3-7.8,2.8-.2.2.4,2,1.3,4,4.7,11.5,6,28.3,3,41-3.5,15.2-14.8,31.3-28.3,40.1-3.1,2-5.9,3.9-6.1,4.1-.8.6,2.9,7.3,4,7.3.6,0,4.2-2,7.9-4.5ZM57.1,297.35c13.6-8.9,23.3-21.7,28.1-37.2,3.3-10.6,3.3-27.4,0-37.7-1.2-4-2.5-7.3-2.7-7.3-.3,0-2.2.7-4.3,1.5l-3.9,1.6,2,5.7c3.1,8.7,3,25.3-.2,35-4.3,13.3-14.2,25.7-25.6,32.2-3,1.7-5.5,3.4-5.5,3.6,0,1.5,3.1,7.4,3.8,7.4.5,0,4.3-2.2,8.3-4.8ZM42.4,293.35c17.5-11.9,27.6-33.9,24.8-54-.6-4.3-1.5-9-2.1-10.5-1-2.6-1.1-2.6-4.8-1.3-2.1.7-3.8,1.7-3.8,2.2s.6,4,1.3,7.9c3.8,20.2-7,42-25.3,51.2-2.7,1.4-5.2,2.7-5.3,2.8-.2.2.2,2,.9,4,1.2,3.3,1.6,3.6,4.3,3.1,1.6-.4,6.1-2.8,10-5.4ZM20.7,293.65c17.4-8.7,29.1-29.7,26.8-48-1.1-8.5-1-8.4-5.6-7.3l-4,1.1.7,6.6c1.2,12.1-4.2,26-13.1,33.8-2.2,2-6.8,4.9-10.3,6.5-4.5,2.2-6.2,3.5-5.8,4.5.4.8.9,2.6,1.2,3.9.8,3.2,1.8,3,10.1-1.1ZM256.8,293.25c3.1-4.2,13-11.6,19.3-14.4,8.3-3.7,15.5-5.1,24.9-5.1,10,.1,17.9,2.1,27,7.1l6.4,3.5,2.3-2.9c1.3-1.5,2.3-3.4,2.3-4,0-1.6-17-9.9-23.5-11.4-7.5-1.8-23.9-1.5-31.5.5-13.1,3.4-24.7,10.4-33.1,20l-4.2,4.8,2.9,2.3c3.8,3.1,4.6,3.1,7.2-.4ZM238,282.75c2.8-4.6,11.4-12.3,18.4-16.5,10-6,17.9-8.3,30-8.9,14.2-.6,22.2.9,33,6.2l8.7,4.2,2.1-3.4c2.5-4.1,2.1-4.6-6.7-9-15.1-7.6-36.4-9.5-52.9-4.7-11,3.2-18.6,7-26.7,13.5-5.6,4.4-15.9,15.5-15.9,17,0,.6,6.2,4.8,7.2,4.9.3.1,1.6-1.4,2.8-3.3ZM277,205.65c1.7-.9,3-1.8,3-2,0-.3-1.2-4-2.7-8.2-2.5-7-2.8-9.2-2.7-20.8,0-11.4.3-14,2.7-21.1,4.7-14.1,13.7-25.9,26.1-34.2l7.2-4.8-1.5-3.7c-.7-2-1.7-3.7-2.2-3.7-2.2,0-13.5,7.9-18.9,13.2-21.9,21.7-28.7,52.6-18,81.1,1.2,3.1,2.6,5.7,3.1,5.7.6,0,2.3-.7,3.9-1.5ZM295.6,194.65c2.8-1.2,3.5-1.9,2.9-3.2-2.8-6.8-3.7-11.8-3.8-21.3,0-8.9.4-11.6,2.6-17.8,5-14.3,13.8-25.1,26.1-32.1l5.5-3.2-1.7-3.7c-.9-2-1.8-3.9-1.9-4.1-.6-1-15.4,8.9-19.9,13.3-14.6,14.7-22.1,36-19.5,55.1,1.3,8.9,4,18.5,5.3,18.5.5,0,2.5-.7,4.4-1.5ZM313.8,183.95c2.9-1.1,3.3-1.6,2.7-3.8-.3-1.4-.9-6.9-1.2-12.2-.4-8-.2-10.9,1.5-16.5,3.7-12,12.5-22.6,23.5-28.4l6.4-3.3-1.5-3.8c-.8-2.1-1.9-3.8-2.5-3.8-.5,0-3.5,1.4-6.7,3.1-12,6.4-21.8,17.8-27,31.4-3.1,8.2-3.9,24.8-1.6,32.8.9,3.1,1.9,5.7,2.3,5.7s2.2-.6,4.1-1.2ZM333.3,172.55c2.1-.5,2.6-1.1,2.2-2.5-1.1-3.4-.6-15.4.9-20.1,3.3-10.9,11.8-20.5,22.1-24.9,5.5-2.4,5.6-2.4,5-5.9-.9-4.9-1.6-5.3-6.6-3.4-18.9,7.4-30.9,25.2-30.9,45.8,0,10,.7,12.8,2.9,12.2.9-.3,2.9-.8,4.4-1.2ZM93.5,162.75c17.6-2.6,33.1-10.9,45-23.9,3.6-3.9,6.5-7.6,6.5-8.3,0-.6-1.5-1.9-3.4-2.9l-3.4-1.8-3.3,3.9c-9.4,11.1-19.3,17.8-32.4,22.1-6.5,2.1-10,2.6-18.5,2.7-12.5,0-18.6-1.3-30-6.6-8-3.7-8.5-3.8-9.8-2.1-2.7,3.7-3.2,5.1-1.9,6.1,2.6,2.1,13.6,7.1,19.2,8.8,12.1,3.4,19.4,3.9,32,2ZM93.5,143.65c4.4-1.4,10.2-3.9,13-5.3,5.3-2.9,19.5-15.7,19.5-17.6,0-.7-1.4-2.2-3.1-3.5l-3-2.2-7.3,6.9c-19.4,18.4-48.3,21.4-69.9,7.4-2-1.4-3.9-2.3-4-2.1-4.3,5.5-4.7,6.6-2.9,8.2,4,3.7,17.8,9.3,27.2,11.1,1.4.2,7,.3,12.5.1,7.6-.2,11.9-.9,18-3ZM232,127.75v-4.4l-5.6-.7c-13.2-1.6-26-8.1-36.4-18.5-12.4-12.4-18.5-25.5-19.8-42.5l-.7-9-4.4-.3-4.4-.3.6,9.3c1.6,27.3,16.4,50.1,40.8,62.8,8.3,4.3,19.9,7.9,26.2,7.9l3.7.1v-4.4ZM76.2,129.05c8.3-1.7,19.1-7.4,25.7-13.5l6-5.5-3.2-2.8-3.1-2.9-5,4.3c-16.8,14.8-40.7,16.8-59.2,5l-5.3-3.4-2.5,3.2c-2.3,2.8-2.4,3.3-1,4.8,2.4,2.6,13.3,8.1,19.9,10,6.9,2,20,2.4,27.7.8ZM67.1,112.35c7-2,13.6-5.4,18.9-9.8l3.1-2.7-2.7-2.8c-1.5-1.6-3.1-2.9-3.6-2.9-.4,0-2.8,1.5-5.2,3.4-6.4,4.9-13.6,7.1-23.1,7.1s-16.2-2.1-23.6-7.2l-5.1-3.5-2.9,2.8c-1.6,1.5-2.9,3.1-2.9,3.4,0,1.7,12.4,9.2,19.1,11.4,9.1,3.1,18.7,3.4,28,.8ZM231,109.75c0-.7.3-2.7.6-4.3.6-2.9.5-3-6.3-4.6-11.2-2.8-18.9-7.2-27.3-15.6-11.3-11.4-17-24.8-17-40.3,0-6.4-.1-6.8-2.2-6.8-1.3,0-3.4-.3-4.7-.7l-2.4-.6.5,10.4c1,18.3,7.4,32.8,19.8,44.9,10.9,10.6,23.3,16.7,38.3,18.9.4.1.7-.5.7-1.3ZM231.2,86.15c0-1.6.1-3.5.2-4,.1-.6-2.8-2.1-6.4-3.4-8.3-2.9-13.3-6.1-19.5-12.5-9.5-9.8-13.5-19.7-13.5-33.6,0-8.9-.4-9.4-6.7-9.5-2.2,0-2.3.3-2.3,8.8,0,15.5,4.7,28.1,14.7,39.1,6.5,7.3,13.6,12.2,22.6,15.6,8.7,3.4,10.7,3.3,10.9-.5ZM230.4,65.45c.4-1.6.9-3.5,1.2-4.4.3-1.1-.6-1.9-3.4-2.7-6.1-1.9-13.2-7.1-17.8-13.4-6.1-8.3-7.9-14.3-7.8-25.5l.1-9.2-3.4-1.2c-5.2-1.7-5.8-.5-5.7,11.4,0,8.5.5,11.3,2.7,17,5.3,13.7,15.9,24.6,28.6,29.2,4.9,1.8,4.8,1.9,5.5-1.2Z"/><path id="p17oJFR7KI" class="cls-2" d="M189.9,250.35c-9-5.7-16.7-8.6-30.4-11.6l-10-2.2-.6-13c-.6-12.8-1.9-19.3-5.8-29.1l-2-5,9.6-5.9c6.9-4.3,12.1-8.6,18.9-15.7l9.4-9.7,5.2,3.3c9,5.7,21.5,10.2,34.8,12.5l4.5.8.6,11.9c.6,12.1,2.7,22.4,6,30.3,2.4,5.4,2.4,5.9-.1,6.7-5,1.6-18.4,11.7-26.6,20.1l-9.1,9.4-4.4-2.8Z"/></g><path class="cls-1" d="M466.64,194.64c-3.73-3.76-3.7-4.41.05-6.99,21.43-14.69,29.55-41.6,19.98-65.97-.86-2.18-1.88-2.88-4.07-1.98-1.46.6-3.03.95-4.89,1.52,7.39,17.37,7.24,34.31-1.9,50.73-5.01,9-12.09,16.07-21.45,21.19-.9-1.71-1.67-3.19-2.28-4.35,4.18-3.56,8.34-6.64,11.95-10.27,13.61-13.66,17.17-37,8.57-54.25-.8-1.6-1.7-2.07-3.49-1.95-10.5.68-20.56-1.13-30.06-5.75-1.23-.6-2.38-1.37-3.51-2.04,1.8-5.1,2.05-5.2,6.46-3.04,14.21,6.94,28.64,6.54,43.2,1.28,9.58-3.46,17.23-9.54,23.45-17.51.51-.66.93-1.4,1.11-1.68-1.84-2.02-3.48-3.81-5.33-5.85-12.03,15.96-27.88,24.23-47.97,23.55-9.16-.31-17.74-2.75-25.44-7.84,1.96-5.18,2.15-5.26,6.52-2.9,20.63,11.14,49.89,3.43,62.09-16.49.52-.86.04-2.8-.61-3.84-5.73-9.11-9.16-18.91-9.59-29.72-.07-1.88-.11-3.35,2.54-3.33,2.38.02,3.1.81,3.21,3.18,1.22,24.69,19.06,45.61,43.29,50.45,7.89,1.58,6.71,1.78,8.28-6.42-4.44-1.07-8.97-1.89-13.32-3.26-21.1-6.64-36.94-28.53-36.93-50.65,0-2.09.78-2.53,2.65-2.54,2.14,0,3.32.33,3.36,2.96.2,13.63,5.58,25.15,15.45,34.31,7.98,7.39,17.52,11.94,28.59,12.87,2.3.19,3.48-.4,4.47-2.52,4.52-9.6,11.78-16.85,20.29-22.94.86-.61,1.86-1.02,2.74-1.5,3.66,3.54,3.49,4.07-.33,6.87-15.1,11.05-23.25,25.84-23.66,44.71-.15,7.09,1.13,13.89,3.6,20.51.93,2.49,2.24,3.41,4.81,2.16,1.23-.6,2.64-.83,4.07-1.25-1.3-4.26-2.79-8.38-3.8-12.61-5.13-21.56,5.45-46.31,24.56-57.67,1.42-.84,2.77-2.24,4.13.38,1.15,2.21,1.12,3.26-1.21,4.83-15.31,10.29-23.3,24.59-22.84,43.27.15,6.31,1.54,12.32,4.14,18.1.98,2.17,2.24,2.98,4.67,2.85,10.73-.58,20.94,1.52,30.58,6.36,2.08,1.04,2.64,2.06,1.33,4.21-1.1,1.8-2.13,2.03-3.92,1.08-9.27-4.93-19.25-6.81-29.62-5.92-16.07,1.38-29.01,8.75-38.84,21.5-.5.65-.28,2.31.2,3.17.88,1.57,2.2,2.89,3.53,4.57,3.09-3.44,5.47-6.29,8.07-8.93,15.92-16.17,44.3-20.07,63.91-8.87,1.57.89,2.7,1.67,1.42,3.7-1.06,1.68-1.82,3.04-4.23,1.68-7.87-4.43-16.39-6.21-25.42-5.9-12.52.44-23.11,5.23-32.03,13.9-.62.6-1.19,1.24-1.8,1.85-5.86,5.95-5.81,5.92-1.74,13.16,4.62,8.19,6.92,17.08,7.7,26.41.14,1.64.11,3.09-2.14,3.08-1.85-.01-3.6.31-3.77-2.56-.65-10.87-3.92-20.88-10.47-29.67-9.1-12.21-21.15-19.62-36.22-21.99-1.1-.17-3.1.08-3.34.68-.81,2.02-1.09,4.28-1.36,6.48-.02.19,1.41.72,2.21.84,23.53,3.57,38.65,17.01,45.8,39.46,1.34,4.22,1.34,8.89,1.87,13.36.16,1.37.37,2.94-1.91,2.83-1.87-.09-3.56.08-3.86-2.65-.52-4.68-1.01-9.43-2.25-13.95-4.73-17.31-22.6-31.97-40.33-33.63-3.2-.3-5,.5-6.5,3.52-5,10.1-12.84,17.62-22.45,23.66ZM515.05,96.92c-1.25,1.51-2.37,2.93-3.55,4.29-5.12,5.93-11.22,10.6-18.06,14.39-.92.51-2.1,2.3-1.83,2.95,3.61,8.71,4.97,17.75,4.65,27.12-.03.75,1.15,2.09,1.92,2.22,9.76,1.61,18.95,4.67,27.46,10.67,6.48-8.62,14.29-15.51,24.15-20.01-4.17-9.53-6-19.03-5.51-28.99.04-.76-1.59-2.22-2.57-2.33-9.61-1.15-18.18-4.9-26.67-10.32Z"/><path class="cls-1" d="M504.12,28.51c1.66.09,3.32.18,5.35.29-.47,11.81,2.88,22.23,10.56,31,7.69,8.79,17.47,13.7,29.29,14.69v5.33c-22.86.7-48.3-23.02-45.2-51.31Z"/><path class="cls-1" d="M491.49,175.2c29.86,2.2,47.87,29.27,44.98,51.72-1.63-.08-3.29-.16-5.33-.26.45-11.84-2.88-22.28-10.57-31.1-7.71-8.84-17.61-13.53-29.56-14.66.17-1.97.31-3.72.48-5.7Z"/><path class="cls-1" d="M614.44,163.22c-1.05,1.58-1.98,3-3.07,4.63-10-6.55-20.72-8.57-32.2-6.42-11.58,2.17-20.49,8.47-27.42,18.16-.79-.45-1.61-.88-2.39-1.37-.72-.46-1.39-1-2.07-1.5,12.17-21.61,45.24-29.23,67.15-13.5Z"/><path class="cls-1" d="M442.52,191.48c-.85-1.72-1.6-3.23-2.34-4.71,21.52-11.78,29.41-36.16,19.62-57.9,1.57-.8,3.15-1.6,4.72-2.39,11.5,21.36,3.78,52.73-22.01,65Z"/><path class="cls-1" d="M598.15,63.86c.83,1.74,1.56,3.27,2.29,4.8-22.43,11.91-29.11,37.74-19.61,57.81-1.54.8-3.09,1.61-4.64,2.41-11.78-20.89-3.75-52.84,21.96-65.03Z"/><path class="cls-1" d="M489.24,76c1.43.91,2.78,1.76,4.11,2.61-11.37,20.33-44.18,30.08-67.1,13.59.91-1.4,1.82-2.81,2.78-4.28,23.18,12.18,43.18,8.44,60.21-11.92Z"/><path class="cls-1" d="M421.65,81.27c1.11-1.51,2.11-2.88,3.26-4.46,8.38,5.82,17.43,8.22,27.48,6.71,10.08-1.52,18.04-6.49,24.62-14.62,1.45,1.11,2.84,2.17,4.22,3.23-9.63,16.1-38.57,25.39-59.58,9.14Z"/><path class="cls-1" d="M618.92,174.27c-1.01,1.35-2.02,2.71-3.22,4.32-8.36-5.72-17.44-8.34-27.47-6.72-9.95,1.61-18.16,6.28-24.54,14.64-1.54-1.15-2.96-2.2-4.37-3.25,11.99-18.47,41.37-24.02,59.59-9Z"/><path class="cls-1" d="M511.38,19.03c1.66.18,3.32.36,5.01.54-.03,22.63,10.72,36.5,33.14,41.51-.21,1.6-.45,3.34-.68,5.06-22.01-1.32-41.29-23.9-37.47-47.12Z"/><path class="cls-1" d="M609.89,65.44c.74,1.7,1.42,3.24,2.22,5.08-9.14,4.43-15.95,10.99-19.62,20.44-3.66,9.43-3.6,18.87.39,28.54-1.67.74-3.29,1.45-4.88,2.15-9-16.43-2.82-45.62,21.88-56.2Z"/><path class="cls-1" d="M430.76,189.95c-.78-1.78-1.45-3.32-2.1-4.81,21.42-15.16,24.73-23.61,19.41-49.35,1.5-.66,3.04-1.34,4.57-2.02,9.51,18.03,1.47,46.37-21.88,56.17Z"/><path class="cls-1" d="M529.34,236.48c-1.84-.25-3.52-.48-5.23-.72.2-22.69-10.73-36.41-32.88-41.42.14-1.62.28-3.19.41-4.73,16.93-.49,41.09,18.87,37.7,46.87Z"/><path class="cls-1" d="M418.88,188.28c-.63-1.73-1.2-3.3-1.77-4.87,16.98-7.23,23.94-24.16,18.93-40.61,1.64-.6,3.29-1.2,4.92-1.79,7.89,17.32-3.61,42.18-22.08,47.27Z"/><path class="cls-1" d="M549.5,47.25c-.35,1.84-.65,3.39-.94,4.93-16.69-1.37-34.46-20.47-30.02-42.59,1.63.28,3.28.55,5.16.87-1.41,19.16,7.24,31.34,25.8,36.79Z"/><path class="cls-1" d="M491.25,208.3c.3-1.86.57-3.52.84-5.16,15.6,1.11,34.5,19.4,30.05,42.74-1.72-.33-3.45-.66-5.4-1.04,1.24-8.59-.43-16.41-5.32-23.4-4.82-6.91-11.47-11.17-20.17-13.14Z"/><path class="cls-1" d="M623.94,72.24c-16.56,6.19-23.57,20.56-19.41,40.36-1.54.63-3.16,1.29-4.78,1.95-7.51-16.36,1.55-40.66,21.87-47.39.73,1.71,1.47,3.44,2.22,5.18l.1-.11Z"/><path class="cls-1" d="M465.24,62.2c1.37,1.18,2.59,2.23,3.8,3.28-10.68,15.68-37.41,18.21-51.91,4.63,1.16-1.34,2.32-2.69,3.48-4.04,12.55,9.83,30.86,10.46,44.63-3.87Z"/><path class="cls-1" d="M575.63,193.32c-1.48-1.27-2.84-2.43-4.18-3.58,11.61-15.52,38.19-17.79,52.09-4.44-1.09,1.28-2.18,2.58-3.46,4.09-6.83-5.34-14.49-7.93-23.11-7.15-8.51.78-15.58,4.5-21.34,11.08Z"/><path class="cls-1" d="M412.51,58.98c1.25-1.11,2.52-2.24,3.91-3.48,12.06,9.62,24.3,9.69,37.05-.25.98,1.27,2.07,2.7,3.19,4.17-9.47,12.11-33.58,12.18-44.16-.44Z"/><path class="cls-1" d="M628.3,196.29c-1.39,1.38-2.68,2.65-3.96,3.92-10.8-9.88-26.05-9.85-36.67-.32-1.3-1.19-2.61-2.37-3.9-3.55,8.57-10.73,30.87-13.97,44.53-.04Z"/><path class="cls-1" d="M623.84,72.35c3.09-1.33,6.19-2.67,9.62-4.15.58,2.06,1.07,3.77,1.63,5.76-6.89,2.13-12.22,6.07-15.77,12.19-3.51,6.05-4.25,12.53-2.71,19.6-1.73.49-3.45.97-5.15,1.45-3.96-10.23.48-24.65,9.83-32.36.95-.78,1.77-1.72,2.65-2.58,0,0-.1.1-.1.1Z"/><path class="cls-1" d="M549.47,33.6c-.47,1.69-.9,3.22-1.33,4.74-15.75-2.45-27.76-22.41-22.23-38.34,1.58.46,3.19.92,4.96,1.44-2.31,15.54,3.57,26.35,18.61,32.16Z"/><path class="cls-1" d="M407.06,186.85c-.48-1.76-.93-3.39-1.43-5.2,14.72-5.7,20.99-16.33,18.58-32.12,1.73-.42,3.34-.81,4.93-1.2,4.92,13.12-3.31,33.66-22.09,38.52Z"/><path class="cls-1" d="M491.21,221.9c.45-1.7.85-3.24,1.24-4.74,13.34,1.53,27.89,19.6,22.36,38.15-1.68-.38-3.39-.77-5.09-1.16,2.8-16.74-5.71-27.73-18.51-32.24Z"/><path class="cls-2" d="M515.05,96.92c8.49,5.42,17.06,9.16,26.67,10.32.98.12,2.61,1.57,2.57,2.33-.49,9.96,1.33,19.45,5.51,28.99-9.86,4.51-17.67,11.4-24.15,20.01-8.51-5.99-17.7-9.05-27.46-10.67-.77-.13-1.94-1.47-1.92-2.22.32-9.38-1.04-18.41-4.65-27.12-.27-.65.91-2.44,1.83-2.95,6.84-3.79,12.94-8.47,18.06-14.39,1.18-1.36,2.3-2.78,3.55-4.29Z"/></svg>