<?xml version="1.0" encoding="UTF-8"?><svg id="Layer_1" xmlns="http://www.w3.org/2000/svg" xmlns:xlink="http://www.w3.org/1999/xlink" viewBox="0 0 111.79 81.51"><defs><style>.cls-1,.cls-2{stroke-width:0px;}.cls-2{fill:none;}.cls-3{clip-path:url(#clippath);}</style><clipPath id="clippath"><rect class="cls-2" width="111.79" height="81.51"/></clipPath></defs><g class="cls-3"><circle class="cls-1" cx="2" cy="2" r="2"/><circle class="cls-1" cx="17.5" cy="2" r="2"/><circle class="cls-1" cx="32" cy="2" r="2"/><circle class="cls-1" cx="47.5" cy="2" r="2"/><circle class="cls-1" cx="62" cy="2" r="2"/><circle class="cls-1" cx="77.5" cy="2" r="2"/><circle class="cls-1" cx="92" cy="2" r="2"/><circle class="cls-1" cx="107.5" cy="2" r="2"/><circle class="cls-1" cx="2" cy="17.5" r="2"/><circle class="cls-1" cx="17.5" cy="17.5" r="2"/><circle class="cls-1" cx="32" cy="17.5" r="2"/><circle class="cls-1" cx="47.5" cy="17.5" r="2"/><circle class="cls-1" cx="62" cy="17.5" r="2"/><circle class="cls-1" cx="77.5" cy="17.5" r="2"/><circle class="cls-1" cx="92" cy="17.5" r="2"/><circle class="cls-1" cx="107.5" cy="17.5" r="2"/><circle class="cls-1" cx="2" cy="32" r="2"/><circle class="cls-1" cx="17.5" cy="32" r="2"/><circle class="cls-1" cx="32" cy="32" r="2"/><circle class="cls-1" cx="47.5" cy="32" r="2"/><circle class="cls-1" cx="62" cy="32" r="2"/><circle class="cls-1" cx="77.5" cy="32" r="2"/><circle class="cls-1" cx="92" cy="32" r="2"/><circle class="cls-1" cx="107.5" cy="32" r="2"/><circle class="cls-1" cx="2" cy="47.5" r="2"/><circle class="cls-1" cx="17.5" cy="47.5" r="2"/><circle class="cls-1" cx="32" cy="47.5" r="2"/><circle class="cls-1" cx="47.5" cy="47.5" r="2"/><circle class="cls-1" cx="62" cy="47.5" r="2"/><circle class="cls-1" cx="77.5" cy="47.5" r="2"/><circle class="cls-1" cx="92" cy="47.5" r="2"/><circle class="cls-1" cx="107.5" cy="47.5" r="2"/><circle class="cls-1" cx="2" cy="62" r="2"/><circle class="cls-1" cx="17.5" cy="62" r="2"/><circle class="cls-1" cx="32" cy="62" r="2"/><circle class="cls-1" cx="47.5" cy="62" r="2"/><circle class="cls-1" cx="62" cy="62" r="2"/><circle class="cls-1" cx="77.5" cy="62" r="2"/><circle class="cls-1" cx="92" cy="62" r="2"/><circle class="cls-1" cx="107.5" cy="62" r="2"/><circle class="cls-1" cx="2" cy="77.5" r="2"/><circle class="cls-1" cx="17.5" cy="77.5" r="2"/><circle class="cls-1" cx="32" cy="77.5" r="2"/><circle class="cls-1" cx="47.5" cy="77.5" r="2"/><circle class="cls-1" cx="62" cy="77.5" r="2"/><circle class="cls-1" cx="77.5" cy="77.5" r="2"/><circle class="cls-1" cx="92" cy="77.5" r="2"/><circle class="cls-1" cx="107.5" cy="77.5" r="2"/></g></svg>